<svg width="1440" height="1200" viewBox="0 0 1440 1200" fill="none" xmlns="http://www.w3.org/2000/svg">
<rect width="1440" height="1200" fill="#F5F5F5"/>
<g clip-path="url(#clip0_1_78)">
<rect width="1440" height="1200" fill="#0000FF"/>
<path d="M211.138 885.545H1229.63V313.694H211.138V885.545ZM1232.02 887.938H208.744V311.305H1232.02V887.938Z" fill="white" fill-opacity="0.12"/>
<path d="M1230.82 805.901H209.936V803.508H1230.82V805.901Z" fill="white" fill-opacity="0.12"/>
<path d="M1230.82 723.871H209.936V721.478H1230.82V723.871Z" fill="white" fill-opacity="0.12"/>
<path d="M1230.82 641.833H209.936V639.44H1230.82V641.833Z" fill="white" fill-opacity="0.12"/>
<path d="M1230.82 559.799H209.936V557.406H1230.82V559.799Z" fill="white" fill-opacity="0.12"/>
<path d="M1230.82 477.763H209.936V475.37H1230.82V477.763Z" fill="white" fill-opacity="0.12"/>
<path d="M1230.82 395.729H209.936V393.336H1230.82V395.729Z" fill="white" fill-opacity="0.12"/>
<path d="M1153.49 886.738H1151.1V312.491H1153.49V886.738Z" fill="white" fill-opacity="0.12"/>
<path d="M1074.96 886.741H1072.57V312.495H1074.96V886.741Z" fill="white" fill-opacity="0.12"/>
<path d="M996.423 886.741H994.029V312.491H996.423V886.741Z" fill="white" fill-opacity="0.12"/>
<path d="M917.903 886.738H915.508V312.487H917.903V886.738Z" fill="white" fill-opacity="0.12"/>
<path d="M839.366 886.741H836.969V312.492H839.366V886.741Z" fill="white" fill-opacity="0.12"/>
<path d="M760.841 886.742H758.448V312.495H760.841V886.742Z" fill="white" fill-opacity="0.12"/>
<path d="M682.314 886.742H679.922V312.495H682.314V886.742Z" fill="white" fill-opacity="0.12"/>
<path d="M603.784 886.742H601.392V312.495H603.784V886.742Z" fill="white" fill-opacity="0.12"/>
<path d="M525.254 886.742H522.862V312.495H525.254V886.742Z" fill="white" fill-opacity="0.12"/>
<path d="M446.722 886.742H444.329V312.495H446.722V886.742Z" fill="white" fill-opacity="0.12"/>
<path d="M368.193 886.742H365.801V312.495H368.193V886.742Z" fill="white" fill-opacity="0.12"/>
<path d="M289.666 886.742H287.273V312.495H289.666V886.742Z" fill="white" fill-opacity="0.12"/>
<path d="M210.302 311.298H1230.46L1692.21 3.43451H-251.455L210.302 311.298ZM1231.18 313.69H209.578L-259.357 1.04489H1700.12L1231.18 313.69Z" fill="white" fill-opacity="0.12"/>
<path d="M1268.14 288.807H172.624V286.42H1268.14V288.807Z" fill="white" fill-opacity="0.12"/>
<path d="M1311.34 260.004H129.415V257.614H1311.34V260.004Z" fill="white" fill-opacity="0.12"/>
<path d="M1361.95 226.271H78.8148V223.869H1361.95V226.271Z" fill="white" fill-opacity="0.12"/>
<path d="M1422.03 186.217H18.732V183.818H1422.03V186.217Z" fill="white" fill-opacity="0.12"/>
<path d="M1494.52 137.878H-53.7615V135.484H1494.52V137.878Z" fill="white" fill-opacity="0.12"/>
<path d="M1583.72 78.4004H-142.97V76.0121H1583.72V78.4004Z" fill="white" fill-opacity="0.12"/>
<path d="M1153.04 313.432L1151.56 311.552L1545.3 1.29431L1546.79 3.16809L1153.04 313.432Z" fill="white" fill-opacity="0.12"/>
<path d="M1074.59 313.356L1072.94 311.633L1395.1 1.37402L1396.75 3.09738L1074.59 313.356Z" fill="white" fill-opacity="0.12"/>
<path d="M996.155 313.246L994.295 311.745L1244.87 1.49084L1246.73 2.99164L996.155 313.246Z" fill="white" fill-opacity="0.12"/>
<path d="M917.743 313.091L915.668 311.894L1094.65 1.64114L1096.72 2.83759L917.743 313.091Z" fill="white" fill-opacity="0.12"/>
<path d="M839.318 312.878L837.049 312.101L944.438 1.83859L946.699 2.62411L839.318 312.878Z" fill="white" fill-opacity="0.12"/>
<path d="M760.835 312.624L758.465 312.35L794.258 2.09271L796.637 2.36661L760.835 312.624Z" fill="white" fill-opacity="0.12"/>
<path d="M679.938 312.624L644.136 2.36661L646.516 2.09271L682.309 312.35L679.938 312.624Z" fill="white" fill-opacity="0.12"/>
<path d="M601.456 312.885L494.075 2.62375L496.327 1.84479L603.716 312.106L601.456 312.885Z" fill="white" fill-opacity="0.12"/>
<path d="M523.023 313.093L344.045 2.83698L346.119 1.63834L525.104 311.894L523.023 313.093Z" fill="white" fill-opacity="0.12"/>
<path d="M444.597 313.246L194.027 2.98981L195.889 1.48285L446.455 311.739L444.597 313.246Z" fill="white" fill-opacity="0.12"/>
<path d="M366.162 313.364L44.0022 3.10153L45.6625 1.38034L367.821 311.634L366.162 313.364Z" fill="white" fill-opacity="0.12"/>
<path d="M287.727 313.438L-106.026 3.18451L-104.545 1.30051L289.207 311.554L287.727 313.438Z" fill="white" fill-opacity="0.12"/>
<path d="M-251.454 1195.8H1692.21L1230.46 887.937H210.302L-251.454 1195.8ZM1700.12 1198.2H-259.356L209.579 885.545H1231.18L1700.12 1198.2Z" fill="white" fill-opacity="0.12"/>
<path d="M1268.14 912.81H172.624V910.417H1268.14V912.81Z" fill="white" fill-opacity="0.12"/>
<path d="M1311.34 941.621H129.415V939.228H1311.34V941.621Z" fill="white" fill-opacity="0.12"/>
<path d="M1361.95 975.359H78.8147V972.967H1361.95V975.359Z" fill="white" fill-opacity="0.12"/>
<path d="M1422.03 1015.42H18.7318V1013.03H1422.03V1015.42Z" fill="white" fill-opacity="0.12"/>
<path d="M1494.52 1063.75H-53.7617V1061.36H1494.52V1063.75Z" fill="white" fill-opacity="0.12"/>
<path d="M1583.72 1123.23H-142.97V1120.84H1583.72V1123.23Z" fill="white" fill-opacity="0.12"/>
<path d="M1545.3 1197.93L1151.56 887.68L1153.04 885.798L1546.79 1196.06L1545.3 1197.93Z" fill="white" fill-opacity="0.12"/>
<path d="M1395.1 1197.86L1072.93 887.602L1074.59 885.88L1396.75 1196.14L1395.1 1197.86Z" fill="white" fill-opacity="0.12"/>
<path d="M1244.87 1197.75L994.295 887.494L996.155 885.996L1246.73 1196.25L1244.87 1197.75Z" fill="white" fill-opacity="0.12"/>
<path d="M1094.65 1197.6L915.668 887.337L917.743 886.14L1096.72 1196.4L1094.65 1197.6Z" fill="white" fill-opacity="0.12"/>
<path d="M944.438 1197.39L837.048 887.127L839.318 886.346L946.698 1196.61L944.438 1197.39Z" fill="white" fill-opacity="0.12"/>
<path d="M794.252 1197.14L758.457 886.876L760.834 886.605L796.629 1196.86L794.252 1197.14Z" fill="white" fill-opacity="0.12"/>
<path d="M646.51 1197.14L644.133 1196.86L679.928 886.605L682.305 886.876L646.51 1197.14Z" fill="white" fill-opacity="0.12"/>
<path d="M496.329 1197.39L494.072 1196.61L601.456 886.349L603.713 887.131L496.329 1197.39Z" fill="white" fill-opacity="0.12"/>
<path d="M346.116 1197.6L344.043 1196.4L523.024 886.142L525.098 887.338L346.116 1197.6Z" fill="white" fill-opacity="0.12"/>
<path d="M195.889 1197.75L194.027 1196.25L444.601 885.993L446.459 887.492L195.889 1197.75Z" fill="white" fill-opacity="0.12"/>
<path d="M45.6687 1197.86L44.0082 1196.14L366.169 885.879L367.828 887.602L45.6687 1197.86Z" fill="white" fill-opacity="0.12"/>
<path d="M-104.543 1197.93L-106.025 1196.06L287.73 885.8L289.21 887.682L-104.543 1197.93Z" fill="white" fill-opacity="0.12"/>
<path d="M-254.209 4.47437L-254.21 1194.76L208.744 886.102V313.131L-254.209 4.47437ZM-256.603 1199.23L-256.602 0L211.136 311.854V887.377L-256.603 1199.23Z" fill="white" fill-opacity="0.12"/>
<path d="M29.3913 1007.91H26.9986V191.32H29.3913V1007.91Z" fill="white" fill-opacity="0.12"/>
<path d="M87.8372 968.946H85.4445V230.29H87.8372V968.946Z" fill="white" fill-opacity="0.12"/>
<path d="M136.097 936.771H133.705V262.463H136.097V936.771Z" fill="white" fill-opacity="0.12"/>
<path d="M176.622 909.751H174.23V289.485H176.622V909.751Z" fill="white" fill-opacity="0.12"/>
<path d="M-254.89 1027.4L-255.919 1025.24L209.428 803.627L210.457 805.789L-254.89 1027.4Z" fill="white" fill-opacity="0.12"/>
<path d="M-255.076 856.783L-255.733 854.486L209.613 721.516L210.27 723.821L-255.076 856.783Z" fill="white" fill-opacity="0.12"/>
<path d="M-255.293 686.144L-255.52 683.767L209.827 639.446L210.053 641.823L-255.293 686.144Z" fill="white" fill-opacity="0.12"/>
<path d="M209.827 559.788L-255.52 515.467L-255.293 513.09L210.053 557.411L209.827 559.788Z" fill="white" fill-opacity="0.12"/>
<path d="M209.613 477.717L-255.733 344.747L-255.076 342.45L210.27 475.412L209.613 477.717Z" fill="white" fill-opacity="0.12"/>
<path d="M209.428 395.608L-255.919 173.997L-254.89 171.835L210.457 393.447L209.428 395.608Z" fill="white" fill-opacity="0.12"/>
<path d="M1232.01 886.103L1694.97 1194.76V4.4801L1232.01 313.136V886.103ZM1697.36 1199.23L1229.61 887.38V311.856L1697.36 0.00012207V1199.23Z" fill="white" fill-opacity="0.12"/>
<path d="M1413.77 1007.91H1411.38V191.319H1413.77V1007.91Z" fill="white" fill-opacity="0.12"/>
<path d="M1355.31 968.946H1352.92V230.289H1355.31V968.946Z" fill="white" fill-opacity="0.12"/>
<path d="M1307.05 936.774H1304.66V262.462H1307.05V936.774Z" fill="white" fill-opacity="0.12"/>
<path d="M1266.53 909.752H1264.14V289.481H1266.53V909.752Z" fill="white" fill-opacity="0.12"/>
<path d="M1695.66 1027.4L1230.31 805.786L1231.34 803.624L1696.69 1025.24L1695.66 1027.4Z" fill="white" fill-opacity="0.12"/>
<path d="M1695.85 856.783L1230.5 723.822L1231.15 721.516L1696.5 854.487L1695.85 856.783Z" fill="white" fill-opacity="0.12"/>
<path d="M1696.05 686.144L1230.71 641.823L1230.94 639.446L1696.28 683.766L1696.05 686.144Z" fill="white" fill-opacity="0.12"/>
<path d="M1230.94 559.789L1230.71 557.408L1696.05 513.086L1696.28 515.467L1230.94 559.789Z" fill="white" fill-opacity="0.12"/>
<path d="M1231.15 477.713L1230.5 475.413L1695.85 342.444L1696.5 344.746L1231.15 477.713Z" fill="white" fill-opacity="0.12"/>
<path d="M1231.34 395.608L1230.31 393.448L1695.66 171.835L1696.69 173.995L1231.34 395.608Z" fill="white" fill-opacity="0.12"/>
</g>
<defs>
<clipPath id="clip0_1_78">
<rect width="1440" height="1200" fill="white"/>
</clipPath>
</defs>
</svg>
