<svg width="32" height="28" viewBox="0 0 32 28" fill="none" xmlns="http://www.w3.org/2000/svg">
<path d="M10.2207 18.4765C5.82199 16.1605 4.90849 10.5355 8.99824 7.37272C12.7505 4.47097 23.3427 3.77122 25.8995 8.69722C27.833 12.4225 23.1545 13.3277 19.5942 14.1017C18.3065 14.3815 17.1657 14.6447 16.5365 15.0167C14.6442 16.1402 14.036 18.2905 13.8882 19.699M15.0087 1.10347C18.8172 0.696218 23.3172 1.48297 26.5205 3.60922C30.839 6.47647 31.5755 12.1577 27.8435 15.823C25.2597 18.3602 21.725 19.5767 18.167 19.9577C17.3217 20.0477 14.027 19.7927 13.745 19.9577C11.6787 21.1735 13.1555 25.9442 9.50749 26.2772C7.51999 26.458 5.63299 24.4442 4.52149 23.0612C2.00449 19.93 0.644743 16.0975 1.08049 12.0587C1.82524 5.16397 8.89249 1.75747 15.0087 1.10347Z" stroke="#0000FF" strokeWidth="2" stroke-linecap="round" stroke-linejoin="round"/>
</svg>
