<svg width="22" height="23" viewBox="0 0 22 23" fill="none" xmlns="http://www.w3.org/2000/svg">
<path d="M4.18152 5.47925C2.83512 6.82205 -3.05088 15.2172 2.03472 20.3016C7.11792 25.3872 15.5107 19.5 16.8595 18.1548C18.2047 16.812 16.4575 12.8808 12.9571 9.38045C9.45432 5.87765 5.52792 4.12925 4.18152 5.47925ZM15.2983 16.9872C14.8999 17.3808 11.8243 16.4388 8.86152 13.4736C5.90112 10.5108 4.95432 7.43405 5.35272 7.03805C5.74632 6.63965 8.82552 7.58645 11.7847 10.5492C14.7499 13.5096 15.6943 16.5888 15.2983 16.9872ZM16.3279 7.17845L18.6127 4.89125C18.8377 4.66624 18.9641 4.36106 18.9641 4.04285C18.9641 3.72463 18.8377 3.41946 18.6127 3.19445C18.3877 2.96944 18.0825 2.84303 17.7643 2.84303C17.4461 2.84303 17.1409 2.96944 16.9159 3.19445L14.6311 5.48165C14.4061 5.70666 14.2797 6.01183 14.2797 6.33005C14.2797 6.48761 14.3107 6.64363 14.371 6.7892C14.4313 6.93477 14.5197 7.06703 14.6311 7.17845C14.7425 7.28986 14.8748 7.37824 15.0204 7.43853C15.1659 7.49883 15.322 7.52986 15.4795 7.52986C15.7977 7.52986 16.1029 7.40346 16.3279 7.17845ZM11.1559 4.56005C11.2937 4.63664 11.4451 4.68535 11.6017 4.70341C11.7582 4.72146 11.9168 4.7085 12.0684 4.66526C12.2199 4.62203 12.3614 4.54936 12.4849 4.45142C12.6084 4.35348 12.7113 4.23218 12.7879 4.09445L14.0923 1.78325C14.247 1.50509 14.2848 1.17688 14.1975 0.870817C14.1102 0.564757 13.9049 0.30592 13.6267 0.151246C13.3486 -0.00342858 13.0204 -0.0412695 12.7143 0.0460474C12.4082 0.133364 12.1494 0.338687 11.9947 0.616846L10.6903 2.92805C10.6137 3.06577 10.565 3.21724 10.547 3.3738C10.5289 3.53035 10.5419 3.68893 10.5851 3.84048C10.6283 3.99203 10.701 4.13357 10.7989 4.25704C10.8969 4.3805 11.0182 4.48346 11.1559 4.56005ZM21.6535 8.17925C21.5771 8.0414 21.4742 7.91998 21.3507 7.82195C21.2273 7.72392 21.0857 7.6512 20.9341 7.60795C20.7825 7.5647 20.6239 7.55178 20.4673 7.56992C20.3107 7.58805 20.1592 7.63689 20.0215 7.71365L17.6935 8.98685C17.5558 9.06343 17.4345 9.1664 17.3366 9.28986C17.2386 9.41333 17.166 9.55487 17.1227 9.70642C17.0795 9.85796 17.0665 10.0165 17.0846 10.1731C17.1026 10.3296 17.1513 10.4811 17.2279 10.6188C17.3045 10.7566 17.4075 10.8779 17.5309 10.9758C17.6544 11.0737 17.7959 11.1464 17.9475 11.1896C18.099 11.2329 18.2576 11.2458 18.4142 11.2278C18.5707 11.2097 18.7222 11.161 18.8599 11.0844L21.1879 9.81125C21.3257 9.73466 21.447 9.6317 21.5449 9.50824C21.6428 9.38477 21.7155 9.24323 21.7587 9.09168C21.802 8.94013 21.8149 8.78155 21.7969 8.625C21.7788 8.46844 21.7301 8.31698 21.6535 8.17925Z" fill="#0000FF"/>
</svg>
