<svg width="26" height="19" viewBox="0 0 26 19" fill="none" xmlns="http://www.w3.org/2000/svg">
<path d="M21 1H4.33333C2.49238 1 1 2.49238 1 4.33333V14.3333C1 16.1743 2.49238 17.6667 4.33333 17.6667H21C22.841 17.6667 24.3333 16.1743 24.3333 14.3333V4.33333C24.3333 2.49238 22.841 1 21 1Z" stroke="#0000FF" strokeWidth="2"/>
<path d="M19.3334 4.33333H14.3334C13.4129 4.33333 12.6667 5.07953 12.6667 6V12.6667C12.6667 13.5871 13.4129 14.3333 14.3334 14.3333H19.3334C20.2539 14.3333 21.0001 13.5871 21.0001 12.6667V6C21.0001 5.07953 20.2539 4.33333 19.3334 4.33333Z" fill="#0000FF"/>
</svg>
