<svg width="28" height="30" viewBox="0 0 28 30" fill="none" xmlns="http://www.w3.org/2000/svg">
<path d="M10.1167 5.23732L10.5417 3.10482C10.8242 1.70732 10.9917 0.729822 11.7667 0.274822C12.2767 -0.0226782 12.8542 -0.0801782 13.4392 0.109822C14.9167 0.587322 15.0442 3.36732 15.1892 7.07482L14.1042 6.28982C14.0292 3.59482 14.0042 1.39732 13.1167 1.10982C12.8142 1.01232 12.5467 1.03732 12.2967 1.18232C11.7942 1.47732 11.7892 2.23232 11.5717 3.31232L11.1467 5.44232L10.1167 5.23732ZM27.0367 27.8823C27.0367 27.8823 26.9542 28.1473 26.5117 28.1473C26.0692 28.1473 25.9867 27.8823 25.9867 27.8823V24.9948L27.0367 25.5173V27.8823ZM13.9917 27.4648C13.9917 27.4648 13.8542 27.7748 13.4667 27.7748C13.0792 27.7748 12.9417 27.4648 12.9417 27.4648V22.5023L13.9917 23.9723V27.4648Z" fill="#0000FF"/>
<path d="M20.2666 27.3873L27.2816 25.6298C27.2816 25.6298 27.0866 25.0923 26.7291 24.9923L19.4966 26.8848L20.2666 27.3873Z" fill="#0000FF"/>
<path d="M19.6791 29.7348C19.6791 29.7348 19.5967 29.9998 19.1542 29.9998C18.7117 29.9998 18.6292 29.7348 18.6292 29.7348V26.9798L19.6791 27.5023V29.7348Z" fill="#0000FF"/>
<path d="M27.6141 25.5373L27.5316 23.4148C27.5316 22.9173 27.2616 22.6648 26.9491 22.4873C26.6366 22.3098 25.9391 22.1373 25.9391 22.1373C23.8516 21.4148 22.7491 20.1798 22.0241 18.0173C21.4716 16.3698 19.3916 10.6498 18.1816 7.63982C17.5941 6.17482 16.5516 5.09232 15.2441 4.58732C14.2441 4.20232 11.7066 3.81982 11.4241 3.75982L10.3941 3.84232L9.99658 5.83732C10.9916 6.04232 13.7616 6.59982 14.3766 6.83732C15.0516 7.09732 15.6066 7.70232 15.9441 8.53732C17.1391 11.5123 19.1941 17.1573 19.7366 18.7823C20.7216 21.7223 22.6766 23.6148 25.5591 24.4098L26.8141 24.8648L26.8341 25.7573L27.6141 25.5373Z" fill="#0000FF"/>
<path d="M26.9991 23.6573C26.987 23.4255 26.903 23.2032 26.7587 23.0213C26.6145 22.8394 26.4171 22.7069 26.1941 22.6423L25.4566 22.3923C23.3691 21.6698 22.2666 20.4473 21.5416 18.2848C20.9891 16.6373 18.9091 10.9173 17.6991 7.90732C17.1116 6.44232 16.0691 5.35982 14.7616 4.85482C13.7616 4.46982 10.6766 3.89982 10.3916 3.83982L9.93665 6.12982C10.9316 6.33482 13.2791 6.86732 13.8941 7.10232C14.5691 7.36232 15.1241 7.96732 15.4616 8.80232C16.6566 11.7773 18.7116 17.4223 19.2541 19.0473C20.2391 21.9873 22.1941 23.8798 25.0766 24.6748L27.0341 24.9923L26.9991 23.6573Z" fill="#0000FF"/>
<path d="M12.9417 22.5023V24.1223C13.2517 24.6098 13.6016 25.0498 13.9916 25.4473V23.9723L12.9417 22.5023ZM18.6292 26.9798V27.8198L19.6791 28.0848V27.5048L18.6292 26.9798Z" fill="#0000FF"/>
<path d="M16.2367 25.3798C16.2917 25.2973 21.7267 23.7873 21.7267 23.7873C22.0492 23.7123 22.3842 23.7548 22.6767 23.9123C23.0917 24.1348 23.9492 24.4223 24.9892 24.7348C25.1617 24.7873 25.1567 25.0323 24.9842 25.0798L19.3042 26.6923L16.2367 25.3798Z" fill="#B9E4EA"/>
<path d="M8.11411 20.5573C8.11411 20.5573 8.05412 20.8023 7.63412 20.8323C7.15662 20.8673 7.03412 20.6123 7.07162 20.4223L9.92161 5.88732L10.9516 6.09232L8.11411 20.5573Z" fill="#0000FF"/>
<path d="M9.54661 8.92232L2.88161 10.5798L2.73411 11.3248L9.36661 9.67482C9.36661 9.67482 9.77911 9.61232 9.82911 9.29482C9.87161 9.01232 9.69661 8.87982 9.54661 8.92232ZM8.98661 11.9148L2.29161 13.5798L2.14411 14.3248L8.80661 12.6673C8.80661 12.6673 9.21911 12.6048 9.26911 12.2873C9.31411 12.0048 9.13661 11.8748 8.98661 11.9148ZM8.42911 14.9073L1.70411 16.5773L1.55661 17.3223L8.24911 15.6573C8.24911 15.6573 8.66161 15.5948 8.71161 15.2773C8.75411 14.9973 8.57911 14.8673 8.42911 14.9073ZM7.86911 17.8998L1.11161 19.5773L0.964111 20.3223L7.68911 18.6523C7.68911 18.6523 8.10161 18.5898 8.15161 18.2723C8.19661 17.9923 8.01911 17.8598 7.86911 17.8998Z" fill="#0000FF"/>
<path d="M9.31665 8.97982L4.94165 10.0823C5.29915 10.1773 5.59915 10.2648 5.77915 10.3348C5.90915 10.3848 6.03915 10.4348 6.16415 10.4848L9.16915 9.72232L8.72665 11.9798L7.70415 12.2348C7.78165 12.4423 7.86165 12.6573 7.94415 12.8823L8.57915 12.7223L8.37165 13.7923C8.59415 14.4023 8.82665 15.0548 9.06165 15.7223L10.9492 6.09482L9.91915 5.88982L9.31665 8.97982Z" fill="#0000FF"/>
<path d="M19.6816 26.9123C19.6816 26.9123 17.2541 27.0048 15.1116 24.8623C12.6441 22.3948 8.49158 10.3248 7.26408 9.63232C5.34158 8.54732 3.68408 7.45732 3.68408 7.45732L9.85658 5.88732C9.85658 5.88732 12.4691 6.27482 13.9616 6.90482C14.3341 7.06232 15.0541 7.40982 15.6791 9.01482C16.7066 11.6598 18.1866 16.0448 19.4866 19.0548C20.2366 20.7923 20.8566 21.9023 21.4816 22.3848C24.2616 24.5248 26.9966 24.9948 26.9966 24.9948L19.6816 26.9123Z" fill="#0000FF"/>
<path d="M22.0892 22.8323C22.0017 22.7673 21.6067 22.4548 21.5192 22.3873C20.8942 21.9073 20.2767 20.7948 19.5242 19.0573C18.2242 16.0498 16.7442 11.6623 15.7167 9.01732C15.5367 8.55232 15.3142 8.20482 15.1267 7.92482L8.8667 9.50982L14.4817 24.0298C14.6567 24.2848 14.8242 24.5048 14.9892 24.6898L22.0892 22.8323Z" fill="white"/>
<path d="M20.3416 27.3598L20.2616 25.2373C20.2538 25.029 20.1772 24.8292 20.0437 24.6691C19.9103 24.509 19.7276 24.3976 19.5241 24.3523L18.9541 24.2248C16.8766 23.6523 15.5141 22.5648 14.7891 20.4023C14.2366 18.7523 12.1566 13.0323 10.9466 10.0248C10.3591 8.55982 9.31663 7.47732 8.00913 6.97232C7.00913 6.58732 4.50913 6.06732 4.19663 6.00232L3.35413 6.13232L3.43663 8.30482C4.54413 8.53482 6.52913 8.98482 7.14163 9.22232C7.81663 9.48232 8.37163 10.0873 8.70913 10.9223C9.90413 13.8948 11.9591 19.5398 12.5016 21.1673C13.4866 24.1073 15.4416 25.9998 18.3241 26.7923L19.6716 27.0073L19.6916 27.5498L20.3416 27.3598Z" fill="#B0F2F7"/>
<path d="M19.6192 25.8173C19.6095 25.5781 19.5234 25.3484 19.3736 25.1617C19.2237 24.975 19.0181 24.8412 18.7867 24.7798L18.3817 24.6723C16.3042 24.0998 14.9417 22.7698 14.2167 20.6073C13.6642 18.9573 11.5842 13.2373 10.3742 10.2298C9.78669 8.76482 8.74419 7.68232 7.43669 7.17732C6.43669 6.79232 3.66669 6.21232 3.35169 6.14732L2.86169 8.50732C3.96919 8.73732 5.95419 9.18732 6.56669 9.42482C7.24169 9.68482 7.88669 9.91232 8.07919 10.4023C9.25919 13.3798 11.3817 19.7448 11.9267 21.3698C12.9117 24.3098 14.8667 26.2023 17.7492 26.9948L19.6892 27.5448L19.6192 25.8173Z" fill="#0000FF"/>
<path d="M1.05168 22.3673C1.05168 22.3673 0.981683 22.6348 0.519183 22.6673C0.381683 22.6773 0.274183 22.6548 0.194183 22.6198C0.0491825 22.5598 -0.0233175 22.3948 0.00668254 22.2423L3.29918 5.38982C3.58168 3.99232 3.74918 3.01482 4.52418 2.55982C5.03418 2.26232 5.61168 2.20482 6.19668 2.39482C7.73668 2.89232 7.84668 6.52732 8.00418 10.4973C8.00418 10.4973 7.62668 10.5898 7.33168 10.4398C7.03668 10.2898 7.03418 9.96732 7.03418 9.96732C6.91168 7.00732 6.90168 3.72732 5.87418 3.39482C5.57168 3.29732 5.30418 3.32232 5.05418 3.46732C4.55168 3.76232 4.54668 4.51732 4.32918 5.59732L1.05168 22.3673Z" fill="#0000FF"/>
<path d="M26.0042 25.9523V26.4148L27.0366 26.1923V25.6998L26.0042 25.9523Z" fill="#0000FF"/>
<path d="M4.16911 3.69732C4.04911 3.63732 4.04911 3.44482 4.10911 3.32982C4.32411 2.92232 4.75911 2.65982 5.21661 2.61482C5.44161 2.59232 5.47911 2.63982 5.50911 2.72232C5.55161 2.84232 5.42161 2.92732 5.29661 2.95982C4.92911 3.06232 4.65911 3.27982 4.52161 3.54732C4.42911 3.72982 4.28911 3.75732 4.16911 3.69732Z" fill="#CFD8DC"/>
</svg>
