<svg width="31" height="27" viewBox="0 0 31 27" fill="none" xmlns="http://www.w3.org/2000/svg">
<path d="M20.535 21.8878C21.4544 21.8878 22.1998 21.1424 22.1998 20.223C22.1998 19.3036 21.4544 18.5583 20.535 18.5583C19.6156 18.5583 18.8702 19.3036 18.8702 20.223C18.8702 21.1424 19.6156 21.8878 20.535 21.8878Z" stroke="#0000FF" strokeWidth="1.41081" stroke-linecap="round" stroke-linejoin="round"/>
<path d="M22.1998 20.223V12.8225C24.5622 12.8225 25.7222 14.0154 25.7222 16.5228" stroke="#0000FF" strokeWidth="1.41081" stroke-linecap="round" stroke-linejoin="round"/>
<path d="M4.13514 3.1036V1.53604M6.40811 3.1036V1.53604M8.68108 3.1036V1.53604M10.9541 3.1036V1.53604M13.227 3.1036V1.53604M15.5 3.1036V1.53604M17.773 3.1036V1.53604M20.0459 3.1036V1.53604M22.3189 3.1036V1.53604M24.5919 3.1036V1.53604M26.8649 3.1036V1.53604M4.13514 25.8333V24.2658M6.40811 25.8333V24.2658M8.68108 25.8333V24.2658M10.9541 25.8333V24.2658M13.227 25.8333V24.2658M15.5 25.8333V24.2658M17.773 25.8333V24.2658M20.0459 25.8333V24.2658M22.3189 25.8333V24.2658M24.5919 25.8333V24.2658M26.8649 25.8333V24.2658M1 4.67117H2.56757M1 6.92455H2.56757M1 9.17793H2.56757M1 11.4313H2.56757M1 13.6847H2.56757M1 15.9381H2.56757M1 18.1914H2.56757M1 20.4448H2.56757M1 22.6982H2.56757M28.4324 4.67117H30M28.4324 6.92455H30M28.4324 9.17793H30M28.4324 11.4313H30M28.4324 13.6847H30M28.4324 15.9381H30M28.4324 18.1914H30M28.4324 20.4448H30M28.4324 22.6982H30M2.56757 3.1036H28.4324V24.2658H2.56757V3.1036Z" stroke="#0000FF" strokeWidth="1.41081" stroke-linecap="round" stroke-linejoin="round"/>
</svg>
