<svg width="27" height="27" viewBox="0 0 27 27" fill="none" xmlns="http://www.w3.org/2000/svg">
<path d="M19.4032 17.8296L8.83869 7.26349L13.6633 2.44692L13.6633 2.44691C14.3591 1.75224 15.1647 1.21254 16.0818 0.827146L16.0819 0.827106C16.9966 0.442309 17.9514 0.250017 18.9482 0.25L19.4032 17.8296ZM19.4032 17.8296L24.2214 13.0034L24.2216 13.0032C24.9161 12.3087 25.4552 11.5038 25.8394 10.5867L25.8396 10.5863C26.2243 9.673 26.4167 8.71436 26.4167 7.70833C26.4167 5.62698 25.6934 3.86983 24.2434 2.42191C22.7933 0.973976 21.0333 0.251107 18.9483 0.25L19.4032 17.8296ZM7.26349 8.83869L7.0867 8.66192L2.27 13.4867C1.55222 14.2044 0.994444 15.0367 0.596666 15.9833L7.26349 8.83869ZM7.26349 8.83869L2.44692 13.6633L2.44678 13.6634C1.75218 14.358 1.21252 15.163 0.827146 16.0802L0.827065 16.0804C0.442406 16.9937 0.25 17.9523 0.25 18.9583C0.25 21.0397 0.973243 22.7968 2.42331 24.2448C3.8734 25.6927 5.634 26.4156 7.72013 26.4167C8.71578 26.4166 9.67059 26.2244 10.5865 25.8395L10.5867 25.8394C11.5038 25.4552 12.3087 24.9161 13.0032 24.2216L13.0034 24.2214L17.8296 19.4032L7.26349 8.83869Z" stroke="black" strokeWidth="0.5"/>
<path d="M19.4033 18.1833L24.3983 13.18C25.1161 12.4622 25.6733 11.63 26.07 10.6833C26.4678 9.73889 26.6667 8.74722 26.6667 7.70833C26.6667 5.56167 25.9178 3.74056 24.42 2.245C22.9222 0.749445 21.0983 0.00111111 18.9483 0C17.9183 0 16.9306 0.198889 15.985 0.596666C15.0383 0.994444 14.2056 1.55222 13.4867 2.27L8.485 7.26333L19.4033 18.1833Z" fill="#0000FF"/>
</svg>
